General
Complete name                    : Millers Crossing.mkv
Format                           : Matroska
File size                        : 1.77 GiB
Duration                         : 1h 50mn
Overall bit rate                 : 2 305 Kbps


Video
ID                               : 1
Format                           : AVC

Codec ID                         : V_MPEG4/ISO/AVC
Duration                         : 1h 50mn
Bit rate                         : 1 865 Kbps
Nominal bit rate                 : 1 897 Kbps
Width                            : 716 pixels
Height                           : 552 pixels
Display aspect ratio             : 16/9
Frame rate                       : 25.000 fps
Resolution                       : 24 bits
Colorimetry                      : 4:2:0
Scan type                        : Progressive
Bits/(Pixel*Frame)               : 0.189
Stream size                      : 1.43 GiB (81%)
Writing library                  : x264 core 79


Audio
ID                               : 2
Format                           : AC-3
Format/Info                      : Audio Coding 3
Codec ID                         : A_AC3
Duration                         : 1h 50mn
Bit rate mode                    : Constant
Bit rate                         : 384 Kbps
Channel(s)                       : 4 channels
Channel positions                : Front: L C R, Surround: C
Sampling rate                    : 48.0 KHz
Stream size                      : 303 MiB (17%)
Language                         : English

Text #1
Language                         : Dutch

Text #2
Language                         : English

Text #3
Language                         : French

Text #4
Language                         : German

Text #5
Language                         : Italian

Text #6
Language                         : Spanish

Text #7
Language                         : Swedish